<?xml version="1.0" standalone="no"?>
<!DOCTYPE svg PUBLIC "-//W3C//DTD SVG 20010904//EN"
 "http://www.w3.org/TR/2001/REC-SVG-20010904/DTD/svg10.dtd">
<svg version="1.0" xmlns="http://www.w3.org/2000/svg"
 width="600.000000pt" height="365.000000pt" viewBox="0 0 600.000000 365.000000"
 preserveAspectRatio="xMidYMid meet">
<g transform="translate(0.000000,365.000000) scale(0.100000,-0.100000)"
fill="#000000" stroke="none">
<path d="M5010 3246 c0 -2 7 -7 16 -10 8 -3 12 -2 9 4 -6 10 -25 14 -25 6z"/>
<path d="M1023 3209 c14 -8 22 -8 30 0 8 8 3 11 -18 11 -26 -1 -28 -2 -12 -11z"/>
<path d="M3598 3213 c6 -2 18 -2 25 0 6 3 1 5 -13 5 -14 0 -19 -2 -12 -5z"/>
<path d="M4893 3213 c9 -2 23 -2 30 0 6 3 -1 5 -18 5 -16 0 -22 -2 -12 -5z"/>
<path d="M978 3203 c7 -3 16 -2 19 1 4 3 -2 6 -13 5 -11 0 -14 -3 -6 -6z"/>
<path d="M1080 3204 c59 -25 79 -38 73 -47 -3 -6 -1 -7 5 -3 6 4 36 -7 67 -25
49 -27 54 -33 43 -48 -11 -14 -11 -14 4 -3 19 15 6 22 339 -171 118 -68 229
-132 247 -141 19 -10 30 -21 26 -28 -4 -6 -3 -8 3 -5 6 4 31 -5 56 -19 34 -18
44 -30 41 -42 -5 -14 -4 -14 4 -3 8 11 24 6 85 -30 41 -24 73 -47 71 -51 -3
-4 1 -5 9 -3 7 3 29 -5 49 -19 20 -13 53 -32 74 -42 l37 -18 -27 -21 c-18 -15
-22 -22 -12 -22 9 0 16 4 16 8 0 4 13 14 29 22 40 20 208 115 251 142 52 33
146 85 154 85 4 0 5 -4 2 -8 -3 -5 1 -9 9 -9 10 0 12 4 5 12 -8 9 43 43 191
129 110 64 205 113 211 110 6 -4 8 -3 5 3 -3 5 13 20 36 33 41 22 177 101 207
120 71 44 150 82 172 83 26 2 29 17 3 17 -19 0 -126 -57 -353 -189 -107 -63
-197 -109 -204 -105 -6 4 -8 3 -4 -4 3 -6 -30 -31 -81 -59 -156 -88 -168 -95
-187 -112 -10 -9 -21 -15 -25 -15 -6 2 -34 -14 -251 -141 -58 -34 -113 -64
-123 -68 -13 -5 -42 8 -93 38 -40 25 -76 45 -78 45 -3 0 -49 26 -103 58 -54
32 -141 83 -193 112 -198 111 -280 163 -273 173 3 6 1 7 -6 3 -6 -4 -37 8 -69
26 -31 18 -73 42 -93 53 -19 11 -96 55 -170 97 -74 42 -147 79 -164 82 -16 4
-23 3 -15 0z"/>
<path d="M3665 3201 c44 -11 95 -40 128 -72 16 -16 25 -29 21 -29 -4 0 -1 -8
8 -17 35 -42 39 -74 38 -285 -1 -115 1 -212 4 -216 3 -3 6 8 6 25 0 33 22 59
41 47 7 -4 10 -3 7 2 -4 5 42 36 100 70 59 34 155 89 213 123 70 40 113 59
125 55 14 -4 15 -3 6 4 -10 7 14 25 88 67 56 32 108 58 116 58 7 0 10 5 7 10
-4 6 1 8 11 4 9 -4 15 -3 12 1 -7 12 141 95 154 87 6 -4 9 -1 8 7 -2 7 4 13
12 13 8 0 14 -6 12 -13 -1 -8 2 -11 8 -7 8 5 8 11 0 20 -8 9 1 17 37 34 27 12
36 20 22 17 -15 -3 -63 -26 -108 -51 -44 -26 -86 -43 -93 -39 -6 4 -8 3 -4 -4
3 -6 -6 -17 -21 -25 -46 -23 -122 -67 -216 -124 -48 -29 -89 -53 -91 -53 -3 0
-44 -23 -269 -154 -53 -31 -103 -54 -109 -50 -6 4 -9 3 -5 -2 3 -5 -10 -19
-29 -32 l-34 -22 0 177 c0 202 -9 242 -69 307 -40 43 -103 76 -141 75 -23 -1
-22 -2 5 -8z"/>
<path d="M4960 3201 c43 -14 104 -48 127 -73 12 -12 31 -45 42 -71 21 -48 21
-59 21 -1177 0 -1226 3 -1159 -55 -1228 -34 -40 -81 -69 -127 -77 -21 -4 -38
-11 -38 -16 0 -12 27 -11 35 1 4 7 13 6 27 -1 11 -6 18 -7 15 -1 -4 5 4 14 16
19 46 21 91 69 114 120 l23 54 0 1126 c0 834 -3 1136 -12 1165 -23 76 -130
169 -193 167 -16 -1 -15 -2 5 -8z"/>
<path d="M894 3171 c-54 -39 -78 -69 -97 -119 -20 -49 -24 -120 -6 -89 6 10 8
25 5 33 -3 8 3 33 14 55 11 21 18 39 15 39 -10 0 82 78 110 93 17 9 23 16 14
17 -9 0 -34 -13 -55 -29z"/>
<path d="M5103 3155 c0 -8 4 -12 9 -9 5 3 6 10 3 15 -9 13 -12 11 -12 -6z"/>
<path d="M995 3131 c-47 -12 -72 -28 -102 -68 l-28 -36 -3 -1116 c-1 -614 0
-1131 3 -1149 7 -40 59 -101 102 -118 43 -19 97 -18 136 2 18 9 281 160 585
336 l554 320 38 -18 38 -19 -39 -20 c-21 -11 -69 -38 -106 -59 -38 -22 -81
-47 -98 -56 -16 -10 -55 -32 -85 -50 -30 -18 -125 -73 -210 -121 -85 -48 -160
-92 -166 -96 -13 -10 -50 -32 -89 -52 -16 -9 -32 -19 -35 -22 -12 -15 -71 -39
-81 -34 -12 8 -41 -14 -33 -26 3 -5 -2 -9 -10 -9 -9 0 -16 5 -16 10 0 12 -27
13 -34 1 -3 -5 0 -8 7 -7 6 0 14 -3 16 -9 5 -13 -70 -56 -87 -50 -7 3 -10 1
-7 -5 8 -12 -111 -81 -153 -87 -22 -4 -30 -9 -23 -16 10 -10 89 24 186 81 263
154 328 192 331 192 3 0 33 17 67 38 59 37 212 126 532 310 l139 80 41 -23
c22 -13 56 -32 75 -44 19 -11 69 -39 110 -63 41 -23 87 -49 101 -58 15 -8 124
-71 243 -139 118 -68 212 -129 209 -134 -3 -6 -1 -7 5 -3 11 7 29 -3 245 -128
75 -44 133 -84 130 -89 -3 -6 -1 -7 4 -4 6 4 27 0 47 -8 41 -17 56 -19 56 -6
0 5 -16 12 -35 15 -19 4 -74 30 -122 58 -49 28 -139 80 -201 115 -101 58 -112
67 -100 81 11 15 11 15 -3 4 -14 -11 -24 -9 -58 9 -23 12 -38 26 -34 32 3 6 1
7 -6 3 -6 -4 -23 0 -37 9 -24 16 -150 88 -461 267 -71 40 -120 75 -116 81 3 6
1 7 -5 3 -16 -10 -74 22 -647 353 -82 47 -168 104 -191 126 -95 91 -93 249 4
341 37 36 87 66 464 281 113 65 203 121 200 125 -4 4 -77 47 -162 96 -85 49
-301 174 -480 277 -179 103 -366 212 -416 241 -96 55 -139 68 -189 55z m153
-64 c6 0 10 -3 7 -5 -5 -5 36 -30 105 -64 14 -7 27 -15 30 -19 3 -3 33 -20 67
-38 72 -38 106 -68 97 -83 -4 -7 -2 -8 5 -4 6 4 8 12 5 18 -4 6 13 0 37 -13
24 -13 46 -27 47 -32 2 -4 8 -5 13 -1 5 3 9 0 9 -5 0 -6 9 -11 21 -11 11 0 18
-4 15 -9 -5 -8 13 -16 38 -19 5 0 12 -5 15 -10 3 -5 21 -17 38 -26 18 -9 32
-21 30 -27 -1 -7 10 -12 25 -13 15 -1 35 -10 46 -20 11 -9 28 -19 37 -20 9 -1
25 -10 35 -19 11 -9 44 -29 73 -44 28 -15 55 -31 58 -36 3 -5 8 -8 10 -6 10 5
49 -13 44 -22 -4 -5 -1 -10 4 -10 6 -1 14 -2 19 -3 4 0 22 -12 40 -24 18 -13
40 -25 50 -27 9 -2 19 -4 21 -4 2 -1 -4 -10 -14 -21 -10 -11 -22 -17 -26 -14
-5 3 -9 0 -9 -5 0 -6 -9 -11 -20 -11 -11 0 -20 -5 -20 -10 0 -6 -10 -15 -22
-20 -45 -20 -112 -61 -120 -73 -4 -6 -8 -9 -8 -4 0 4 -17 -3 -37 -16 -21 -13
-48 -27 -60 -31 -13 -4 -23 -11 -23 -16 0 -4 -8 -10 -17 -14 -10 -3 -31 -15
-48 -25 -16 -11 -59 -36 -95 -56 -108 -59 -175 -132 -186 -205 -1 -8 -5 -31
-8 -51 -7 -40 15 -122 42 -151 8 -10 11 -18 6 -18 -5 0 14 -20 41 -45 28 -25
56 -45 63 -45 6 0 12 -4 12 -10 0 -5 7 -10 15 -10 8 0 15 -5 15 -12 0 -6 3 -9
6 -5 3 3 15 -3 27 -13 11 -11 24 -17 29 -14 4 3 8 0 8 -5 0 -6 9 -11 20 -11
11 0 23 -7 26 -15 6 -14 41 -31 57 -27 5 1 6 -1 3 -6 -3 -5 22 -22 54 -38 33
-16 60 -33 60 -37 0 -5 5 -5 10 -2 6 3 10 2 10 -2 0 -5 30 -24 68 -43 37 -19
69 -38 72 -41 3 -4 21 -14 40 -22 19 -9 29 -16 22 -16 -7 -1 -11 -5 -8 -9 3
-5 -16 -19 -42 -32 -26 -13 -80 -43 -119 -67 -40 -23 -76 -43 -81 -43 -5 0
-18 -9 -30 -20 -12 -11 -24 -20 -27 -20 -22 1 -25 -1 -19 -12 4 -6 3 -8 -4 -4
-6 3 -16 1 -24 -6 -7 -7 -20 -14 -28 -16 -8 -2 -20 -10 -26 -17 -6 -8 -14 -12
-17 -8 -4 3 -7 1 -7 -5 0 -7 -5 -12 -10 -12 -6 0 -29 -12 -53 -27 -23 -14 -43
-25 -43 -22 -1 2 -10 -3 -20 -12 -11 -9 -29 -20 -41 -23 -13 -4 -23 -12 -23
-17 0 -5 -6 -9 -13 -9 -7 0 -46 -20 -86 -45 -40 -25 -77 -45 -82 -45 -5 0 -9
-4 -9 -9 0 -5 -11 -12 -25 -15 -14 -4 -47 -22 -74 -41 -27 -19 -53 -35 -60
-35 -6 0 -11 -4 -11 -10 0 -5 -9 -10 -19 -10 -11 0 -23 -5 -27 -11 -3 -6 -29
-21 -56 -34 -41 -19 -55 -21 -91 -13 -23 5 -53 19 -65 31 -55 51 -52 -11 -52
1184 0 609 3 1118 6 1130 4 13 11 20 17 16 6 -3 7 -1 3 6 -8 12 43 73 54 66 4
-2 20 0 36 4 21 6 43 3 79 -11 28 -11 56 -20 63 -21z m257 -2327 c-3 -5 -11
-10 -16 -10 -6 0 -7 5 -4 10 3 6 11 10 16 10 6 0 7 -4 4 -10z"/>
<path d="M3582 3133 c-24 -5 -169 -88 -1112 -633 -289 -167 -590 -341 -669
-387 -204 -117 -226 -142 -219 -242 7 -98 4 -95 388 -316 107 -61 283 -163
390 -225 208 -121 556 -322 965 -558 247 -142 251 -144 302 -140 65 6 117 39
143 94 20 40 20 59 18 1171 l-3 1130 -28 36 c-42 55 -112 83 -175 70z m73 -33
c3 -5 15 -10 26 -10 10 0 19 -4 19 -10 0 -5 7 -10 15 -10 8 0 15 -7 15 -16 0
-9 5 -12 12 -8 7 4 8 3 4 -5 -4 -6 -3 -18 3 -25 17 -20 16 -2239 -1 -2269 -7
-12 -12 -25 -13 -30 0 -12 -57 -43 -101 -54 -39 -10 -45 -8 -115 33 -41 23
-92 52 -114 64 -22 12 -54 30 -71 41 -17 10 -35 15 -39 11 -5 -4 -5 -1 -1 6 4
6 2 12 -4 12 -6 0 -28 11 -50 25 -21 14 -45 26 -52 27 -7 2 -15 5 -18 9 -7 7
-84 54 -90 54 -3 0 -45 25 -94 55 -50 30 -92 55 -95 55 -3 1 -32 18 -63 38
-31 20 -60 37 -64 37 -5 0 -78 42 -154 89 -14 8 -28 14 -32 13 -5 -1 -8 2 -8
6 0 5 -16 14 -35 22 -19 8 -35 17 -35 21 0 4 -13 12 -30 17 -16 6 -45 22 -62
35 -44 33 -191 112 -201 109 -5 -1 -6 1 -3 6 3 5 -15 18 -39 28 -25 10 -45 21
-45 24 0 3 -16 14 -35 24 -19 11 -32 24 -28 30 4 7 1 7 -7 -1 -10 -9 -17 -7
-33 7 -11 11 -24 17 -29 14 -4 -3 -8 0 -8 5 0 6 -7 11 -15 11 -8 0 -15 4 -15
10 0 5 -11 12 -25 16 -14 3 -25 10 -25 15 0 5 -9 9 -20 9 -11 0 -20 5 -20 10
0 6 -6 10 -14 10 -8 0 -28 12 -45 26 -17 14 -31 23 -31 20 0 -3 -16 6 -36 19
-19 13 -44 27 -55 30 -10 4 -19 11 -19 16 0 6 -6 7 -12 3 -7 -4 -10 -4 -6 1 4
4 -2 19 -12 33 -44 55 -15 164 56 209 19 13 32 17 28 10 -4 -6 1 -5 12 3 10 9
36 25 56 35 21 11 38 23 38 27 0 5 6 8 13 8 6 0 38 16 69 35 34 20 65 32 75
29 14 -5 15 -4 4 4 -11 8 -11 11 0 18 8 5 16 9 19 9 3 0 25 14 50 30 25 16 66
39 93 52 26 12 67 36 91 53 25 16 49 30 54 30 5 0 15 7 22 15 7 9 15 13 18 10
3 -2 10 2 16 10 6 7 18 15 26 17 8 2 39 18 69 36 30 19 63 38 75 43 12 5 35
18 51 29 17 11 42 25 57 31 16 6 25 15 22 20 -3 5 4 9 15 9 11 0 26 6 33 13 7
7 16 13 20 13 4 -1 16 7 27 16 11 9 22 14 25 11 3 -4 6 -1 6 5 0 7 3 11 8 10
11 -3 75 33 90 51 10 12 12 12 6 1 -5 -8 8 -3 27 11 18 14 70 45 114 68 44 24
82 47 85 51 3 4 15 10 28 14 12 4 22 12 22 17 0 6 4 8 8 5 5 -3 19 4 30 15 12
11 22 17 22 14 0 -7 104 57 108 67 2 5 8 6 13 2 5 -3 9 0 9 5 0 6 3 10 8 9 9
-3 72 30 94 50 10 8 48 30 85 48 69 33 117 42 128 24z"/>
<path d="M4844 3121 c-22 -10 -121 -66 -220 -123 -98 -58 -271 -158 -384 -222
-113 -65 -243 -140 -290 -168 l-85 -49 2 -677 3 -677 92 -54 c101 -58 257
-149 643 -371 240 -139 252 -145 306 -145 43 0 64 6 96 27 78 52 73 -40 73
1225 0 1093 -1 1129 -19 1159 -47 77 -141 110 -217 75z m150 -40 c18 -11 38
-32 44 -46 9 -20 12 -308 12 -1143 0 -614 -1 -1124 -3 -1133 -6 -34 -62 -84
-106 -96 -48 -12 -65 -8 -133 34 -21 13 -38 21 -38 18 0 -3 -6 0 -14 7 -8 7
-11 17 -8 22 3 5 0 6 -6 2 -6 -4 -49 15 -94 43 -92 55 -198 114 -241 134 -15
7 -24 16 -20 20 6 6 -12 10 -21 5 -2 -2 -13 6 -25 16 -12 11 -21 15 -21 10 0
-5 -7 -1 -14 8 -7 10 -28 25 -47 33 -19 9 -56 29 -84 46 -27 16 -65 37 -82 46
-18 9 -33 20 -33 25 0 4 -9 8 -19 8 -11 0 -26 6 -33 13 -7 7 -34 24 -60 37
-27 13 -48 28 -49 34 -4 58 -3 1323 2 1321 8 -6 60 31 54 38 -3 4 -2 5 2 2 3
-3 15 3 26 12 15 13 19 14 13 3 -5 -9 -2 -8 7 2 8 10 17 15 20 11 4 -3 7 -1 7
5 0 6 10 14 23 17 12 4 33 17 46 29 13 11 21 14 16 6 -5 -8 3 -5 17 8 13 12
29 22 35 22 7 0 18 6 25 13 7 7 39 25 71 41 31 15 57 32 57 37 0 6 5 7 10 4 6
-3 10 -1 10 5 0 6 4 9 9 6 5 -3 14 1 21 9 7 8 18 15 24 15 7 0 21 8 32 18 10
9 28 19 39 20 11 2 25 8 30 14 7 8 5 8 -5 3 -8 -5 -12 -5 -9 -1 3 3 39 23 80
44 41 21 94 51 119 67 25 16 47 29 50 29 3 0 13 7 23 16 10 8 21 15 25 16 17
2 91 41 87 46 -16 15 100 -4 129 -21z"/>
<path d="M875 3121 c-3 -5 -2 -12 3 -15 5 -3 9 1 9 9 0 17 -3 19 -12 6z"/>
<path d="M3179 2963 c-13 -16 -12 -17 4 -4 16 13 21 21 13 21 -2 0 -10 -8 -17
-17z"/>
<path d="M787 2933 c-4 -3 -7 -495 -7 -1092 l0 -1086 24 -50 c13 -27 35 -62
48 -77 29 -31 108 -73 108 -58 0 5 -6 10 -13 10 -22 0 -88 51 -81 62 4 7 3 8
-4 4 -17 -10 -34 28 -19 44 10 12 9 12 -4 2 -41 -31 -42 -6 -41 1148 0 605 0
1100 -2 1100 -1 0 -6 -3 -9 -7z"/>
<path d="M2969 2833 c-13 -16 -12 -17 4 -4 16 13 21 21 13 21 -2 0 -10 -8 -17
-17z"/>
<path d="M4109 2833 c-13 -16 -12 -17 4 -4 16 13 21 21 13 21 -2 0 -10 -8 -17
-17z"/>
<path d="M4240 2836 c0 -2 7 -7 16 -10 8 -3 12 -2 9 4 -6 10 -25 14 -25 6z"/>
<path d="M1707 2809 c7 -7 15 -10 18 -7 3 3 -2 9 -12 12 -14 6 -15 5 -6 -5z"/>
<path d="M1826 2752 c-3 -5 1 -9 9 -9 8 0 12 4 9 9 -3 4 -7 8 -9 8 -2 0 -6 -4
-9 -8z"/>
<path d="M3930 2756 c0 -2 8 -10 18 -17 15 -13 16 -12 3 4 -13 16 -21 21 -21
13z"/>
<path d="M2445 1230 c-7 -12 -8 -11 28 -14 15 -2 25 0 21 3 -3 3 -9 6 -12 6
-4 0 -12 4 -19 8 -6 4 -14 3 -18 -3z"/>
<path d="M3859 964 l-4 -231 -30 -49 c-34 -54 -96 -103 -141 -110 -16 -2 -43
-8 -59 -13 l-30 -9 35 -1 c48 -1 131 39 171 84 60 66 68 99 68 298 l1 179 43
-24 c246 -140 346 -202 340 -211 -3 -6 -1 -7 6 -3 6 4 43 -11 84 -35 39 -23
91 -53 115 -65 23 -13 95 -55 160 -93 204 -120 262 -147 262 -122 0 5 -15 12
-34 15 -42 8 -152 73 -148 87 1 6 -2 8 -8 4 -5 -3 -19 -1 -30 5 -16 9 -19 15
-10 25 8 10 8 15 -1 21 -7 4 -9 3 -5 -4 15 -25 -18 -22 -67 6 -353 202 -415
240 -406 251 6 8 5 8 -3 1 -8 -6 -22 -3 -42 9 -17 11 -54 32 -81 48 -185 104
-174 96 -178 133 -2 19 -5 -69 -8 -196z"/>
<path d="M1905 1071 c-3 -5 -2 -12 3 -15 5 -3 9 1 9 9 0 17 -3 19 -12 6z"/>
<path d="M2760 1056 c0 -2 8 -10 18 -17 15 -13 16 -12 3 4 -13 16 -21 21 -21
13z"/>
<path d="M1589 818 c-5 -18 -6 -38 -1 -34 7 8 12 36 6 36 -2 0 -4 -1 -5 -2z"/>
<path d="M5185 759 c-4 -6 -5 -12 -2 -15 2 -3 7 2 10 11 7 17 1 20 -8 4z"/>
<path d="M3779 663 c-13 -16 -12 -17 4 -4 16 13 21 21 13 21 -2 0 -10 -8 -17
-17z"/>
<path d="M907 639 c7 -7 15 -10 18 -7 3 3 -2 9 -12 12 -14 6 -15 5 -6 -5z"/>
<path d="M1179 567 c6 -8 7 -18 3 -22 -4 -5 -1 -5 6 -1 10 6 10 11 1 22 -6 8
-14 14 -16 14 -3 0 0 -6 6 -13z"/>
<path d="M4723 567 c0 -7 11 -13 24 -13 27 -2 27 -1 -3 14 -15 8 -21 8 -21 -1z"/>
<path d="M975 560 c3 -5 13 -10 21 -10 8 0 14 5 14 10 0 6 -9 10 -21 10 -11 0
-17 -4 -14 -10z"/>
<path d="M3745 561 c-3 -5 -2 -12 3 -15 5 -3 9 1 9 9 0 17 -3 19 -12 6z"/>
<path d="M895 551 c-3 -5 -2 -12 3 -15 5 -3 9 1 9 9 0 17 -3 19 -12 6z"/>
</g>
</svg>
